<svg width="256" height="256" viewBox="0 0 256 256" fill="none" xmlns="http://www.w3.org/2000/svg">
<path d="M66.2581 93.5385C70.1721 93.5385 73.9259 91.9824 76.6936 89.2127C79.4613 86.4429 81.0161 82.6863 81.0161 78.7692C81.0161 74.8522 79.4613 71.0956 76.6936 68.3258C73.9259 65.556 70.1721 64 66.2581 64C62.344 64 58.5902 65.556 55.8225 68.3258C53.0549 71.0956 51.5 74.8522 51.5 78.7692C51.5 82.6863 53.0549 86.4429 55.8225 89.2127C58.5902 91.9824 62.344 93.5385 66.2581 93.5385ZM105.613 68.9231C100.171 68.9231 95.7742 73.3231 95.7742 78.7692C95.7742 84.2154 100.171 88.6154 105.613 88.6154H194.161C199.603 88.6154 204 84.2154 204 78.7692C204 73.3231 199.603 68.9231 194.161 68.9231H105.613ZM105.613 118.154C100.171 118.154 95.7742 122.554 95.7742 128C95.7742 133.446 100.171 137.846 105.613 137.846H194.161C199.603 137.846 204 133.446 204 128C204 122.554 199.603 118.154 194.161 118.154H105.613ZM105.613 167.385C100.171 167.385 95.7742 171.785 95.7742 177.231C95.7742 182.677 100.171 187.077 105.613 187.077H194.161C199.603 187.077 204 182.677 204 177.231C204 171.785 199.603 167.385 194.161 167.385H105.613ZM66.2581 192C70.1721 192 73.9259 190.444 76.6936 187.674C79.4613 184.904 81.0161 181.148 81.0161 177.231C81.0161 173.314 79.4613 169.557 76.6936 166.787C73.9259 164.018 70.1721 162.462 66.2581 162.462C62.344 162.462 58.5902 164.018 55.8225 166.787C53.0549 169.557 51.5 173.314 51.5 177.231C51.5 181.148 53.0549 184.904 55.8225 187.674C58.5902 190.444 62.344 192 66.2581 192ZM81.0161 128C81.0161 126.06 80.6344 124.14 79.8927 122.348C79.1511 120.556 78.064 118.928 76.6936 117.557C75.3232 116.185 73.6963 115.097 71.9057 114.355C70.1152 113.613 68.1961 113.231 66.2581 113.231C64.32 113.231 62.4009 113.613 60.6104 114.355C58.8199 115.097 57.1929 116.185 55.8225 117.557C54.4521 118.928 53.3651 120.556 52.6234 122.348C51.8817 124.14 51.5 126.06 51.5 128C51.5 129.94 51.8817 131.86 52.6234 133.652C53.3651 135.444 54.4521 137.072 55.8225 138.443C57.1929 139.815 58.8199 140.903 60.6104 141.645C62.4009 142.387 64.32 142.769 66.2581 142.769C68.1961 142.769 70.1152 142.387 71.9057 141.645C73.6963 140.903 75.3232 139.815 76.6936 138.443C78.064 137.072 79.1511 135.444 79.8927 133.652C80.6344 131.86 81.0161 129.94 81.0161 128Z" fill="url(#paint0_linear_1_5)"/>
<defs>
<linearGradient id="paint0_linear_1_5" x1="127.75" y1="64" x2="127.75" y2="192" gradientUnits="userSpaceOnUse">
<stop stop-color="#CC55FF"/>
<stop offset="1" stop-color="#55CCFF"/>
</linearGradient>
</defs>
</svg>
