<svg width="512" height="512" viewBox="0 0 512 512" fill="none" xmlns="http://www.w3.org/2000/svg">
<path d="M132.516 187.077C140.344 187.077 147.852 183.965 153.387 178.425C158.923 172.886 162.032 165.373 162.032 157.538C162.032 149.704 158.923 142.191 153.387 136.652C147.852 131.112 140.344 128 132.516 128C124.688 128 117.18 131.112 111.645 136.652C106.11 142.191 103 149.704 103 157.538C103 165.373 106.11 172.886 111.645 178.425C117.18 183.965 124.688 187.077 132.516 187.077ZM211.226 137.846C200.342 137.846 191.548 146.646 191.548 157.538C191.548 168.431 200.342 177.231 211.226 177.231H388.323C399.207 177.231 408 168.431 408 157.538C408 146.646 399.207 137.846 388.323 137.846H211.226ZM211.226 236.308C200.342 236.308 191.548 245.108 191.548 256C191.548 266.892 200.342 275.692 211.226 275.692H388.323C399.207 275.692 408 266.892 408 256C408 245.108 399.207 236.308 388.323 236.308H211.226ZM211.226 334.769C200.342 334.769 191.548 343.569 191.548 354.462C191.548 365.354 200.342 374.154 211.226 374.154H388.323C399.207 374.154 408 365.354 408 354.462C408 343.569 399.207 334.769 388.323 334.769H211.226ZM132.516 384C140.344 384 147.852 380.888 153.387 375.348C158.923 369.809 162.032 362.296 162.032 354.462C162.032 346.627 158.923 339.114 153.387 333.575C147.852 328.035 140.344 324.923 132.516 324.923C124.688 324.923 117.18 328.035 111.645 333.575C106.11 339.114 103 346.627 103 354.462C103 362.296 106.11 369.809 111.645 375.348C117.18 380.888 124.688 384 132.516 384ZM162.032 256C162.032 252.121 161.269 248.28 159.785 244.696C158.302 241.112 156.128 237.856 153.387 235.113C150.646 232.37 147.393 230.194 143.811 228.71C140.23 227.226 136.392 226.462 132.516 226.462C128.64 226.462 124.802 227.226 121.221 228.71C117.64 230.194 114.386 232.37 111.645 235.113C108.904 237.856 106.73 241.112 105.247 244.696C103.763 248.28 103 252.121 103 256C103 259.879 103.763 263.72 105.247 267.304C106.73 270.888 108.904 274.144 111.645 276.887C114.386 279.63 117.64 281.806 121.221 283.29C124.802 284.774 128.64 285.538 132.516 285.538C136.392 285.538 140.23 284.774 143.811 283.29C147.393 281.806 150.646 279.63 153.387 276.887C156.128 274.144 158.302 270.888 159.785 267.304C161.269 263.72 162.032 259.879 162.032 256Z" fill="url(#paint0_linear_1_5)"/>
<defs>
<linearGradient id="paint0_linear_1_5" x1="255.5" y1="128" x2="255.5" y2="384" gradientUnits="userSpaceOnUse">
<stop stop-color="#CC55FF"/>
<stop offset="1" stop-color="#55CCFF"/>
</linearGradient>
</defs>
</svg>
